<svg xmlns="http://www.w3.org/2000/svg" shape-rendering="crispEdges" viewBox="0 -0.5 64 64"><path stroke="#ffffff" d="M28 14h6m-9 1h4m4 0h7m-19 1h5m13 0h4m-24 1h3m20 0h4m-29 1h3m25 0h3m-32 1h2m10 0h9m10 0h3m-35 1h2m7 0h16m9 0h2m-37 1h2m6 0h21m7 0h2m-39 1h2m5 0h25m6 0h2m-41 1h2m6 0h27m5 0h1m-41 1h1m5 0h30m4 0h2m-43 1h2m4 0h11m3 0h18m4 0h1m-43 1h1m4 0h12m3 0h18m4 0h1m-43 1h1m4 0h12m3 0h5m3 0h11m3 0h1m-43 1h1m3 0h21m3 0h11m3 0h1m-43 1h1m3 0h21m3 0h11m3 0h1m-43 1h1m3 0h35m3 0h1m-43 1h1m3 0h35m3 0h1m-43 1h1m3 0h35m3 0h1m-43 1h1m3 0h10m3 0h22m3 0h1m-43 1h1m4 0h9m4 0h21m3 0h1m-43 1h1m4 0h9m13 0h11m4 0h1m-43 1h2m3 0h9m13 0h10m5 0h1m-42 1h1m4 0h10m11 0h10m4 0h2m-42 1h1m4 0h30m4 0h2m-41 1h2m4 0h29m4 0h1m-39 1h1m5 0h27m4 0h2m-39 1h2m5 0h25m5 0h1m-37 1h2m5 0h22m6 0h2m-36 1h1m7 0h18m7 0h2m-35 1h3m8 0h12m9 0h2m-32 1h2m14 0h2m10 0h3m-30 1h3m22 0h3m-26 1h4m16 0h4m-21 1h3m11 0h4m-17 1h2m9 0h3m-15 1h2m11 0h2m-16 1h2m13 0h2m-17 1h1m9 0h1m5 0h2m-19 1h2m4 0h1m3 0h3m5 0h1m-20 1h2m4 0h2m3 0h1m1 0h2m4 0h2m-21 1h1m5 0h2m3 0h1m2 0h2m4 0h2m-23 1h2m4 0h3m3 0h1m3 0h1m5 0h2m-24 1h1m4 0h2m1 0h1m3 0h1m3 0h2m5 0h2m-26 1h2m4 0h1m2 0h1m3 0h1m4 0h2m5 0h2m-27 1h1m4 0h2m2 0h1m3 0h1m5 0h2m5 0h3m-30 1h2m4 0h1m3 0h1m3 0h1m6 0h2m6 0h2m-32 1h2m4 0h2m3 0h1m3 0h1m7 0h2m6 0h2m-33 1h1m5 0h1m4 0h1m3 0h1m8 0h2m6 0h2m-34 1h1m4 0h2m4 0h1m3 0h1m9 0h3m5 0h1"/><path stroke="#000000" d="M29 15h4m-7 1h13m-17 1h20m-22 1h25m-27 1h10m9 0h10m-30 1h7m16 0h9m-33 1h6m21 0h7m-35 1h5m25 0h6m-37 1h6m27 0h5m-39 1h5m30 0h4m-39 1h4m11 0h3m18 0h4m-41 1h4m12 0h3m18 0h4m-41 1h4m12 0h3m5 0h3m11 0h3m-41 1h3m21 0h3m11 0h3m-41 1h3m21 0h3m11 0h3m-41 1h3m35 0h3m-41 1h3m35 0h3m-41 1h3m35 0h3m-41 1h3m10 0h3m22 0h3m-41 1h4m9 0h4m21 0h3m-41 1h4m9 0h13m11 0h4m-40 1h3m9 0h13m10 0h5m-40 1h4m10 0h11m10 0h4m-39 1h4m30 0h4m-37 1h4m29 0h4m-37 1h5m27 0h4m-35 1h5m25 0h5m-34 1h5m22 0h6m-33 1h7m18 0h7m-30 1h8m12 0h9m-28 1h14m2 0h10m-24 1h22m-19 1h16m-14 1h11m-11 1h9m-10 1h11m-12 1h13m-14 1h9m1 0h5m-15 1h4m1 0h3m3 0h5m-17 1h4m2 0h3m4 0h4m-18 1h5m2 0h3m5 0h4m-19 1h4m3 0h3m5 0h5m-21 1h4m4 0h3m6 0h5m-22 1h4m4 0h3m7 0h5m-24 1h4m5 0h3m8 0h5m-25 1h4m5 0h3m9 0h6m-28 1h4m6 0h3m10 0h6m-30 1h5m6 0h3m11 0h6m-31 1h4m7 0h3m13 0h5"/></svg>